<?xml version="1.0" standalone="no"?>
<!DOCTYPE svg PUBLIC "-//W3C//DTD SVG 20010904//EN"
 "http://www.w3.org/TR/2001/REC-SVG-20010904/DTD/svg10.dtd">
<svg version="1.0" xmlns="http://www.w3.org/2000/svg"
 width="500.000000pt" height="500.000000pt" viewBox="0 0 500.000000 500.000000"
 preserveAspectRatio="xMidYMid meet">
<metadata>
Created by potrace 1.14, written by Peter Selinger 2001-2017
</metadata>
<g transform="translate(0.000000,500.000000) scale(0.100000,-0.100000)"
fill="#000000" stroke="none">
<path d="M3649 3580 l-37 -19 10 -43 c7 -25 11 -146 10 -285 l-1 -243 -42 -80
c-40 -79 -90 -135 -113 -127 -7 3 -11 51 -11 153 0 123 -3 155 -18 181 -42 78
-113 63 -188 -40 l-29 -40 0 36 c0 34 -2 37 -28 37 -15 0 -38 -7 -50 -16 -20
-14 -22 -23 -22 -112 0 -95 -1 -99 -37 -161 -48 -80 -104 -141 -130 -141 -43
0 -48 100 -17 343 4 26 4 47 0 47 -3 0 -24 -7 -47 -16 -51 -21 -59 -41 -59
-156 0 -90 -1 -92 -41 -155 -46 -71 -91 -113 -119 -113 -29 0 -33 15 -20 92
27 157 14 246 -39 268 -51 21 -130 -32 -173 -113 -10 -22 -21 -37 -23 -35 -2
2 3 73 10 158 16 170 18 260 9 284 -8 20 -46 21 -84 1 -28 -15 -28 -15 -23
-92 l5 -78 -63 -1 c-35 0 -79 -3 -96 -7 -32 -6 -33 -5 -33 26 0 17 -5 49 -11
70 -8 31 -14 37 -38 37 -43 0 -60 -28 -69 -111 l-7 -73 -55 -18 c-30 -9 -69
-17 -86 -17 -57 -2 -77 -54 -24 -64 28 -6 105 4 141 18 14 5 17 -15 24 -186
l7 -191 -36 -53 c-20 -29 -45 -60 -56 -70 -18 -16 -19 -15 -35 14 -16 33 -41
39 -77 20 -11 -6 -22 -9 -24 -6 -2 2 7 30 21 62 25 56 65 202 65 237 0 43 -89
39 -223 -12 -68 -26 -87 -43 -87 -78 0 -51 13 -57 59 -28 49 31 139 68 156 64
28 -7 -42 -193 -106 -283 -28 -39 -31 -48 -21 -69 21 -46 48 -43 100 13 54 57
78 64 88 24 6 -23 2 -31 -27 -52 -91 -69 -160 -146 -199 -223 -49 -98 -58
-163 -33 -238 14 -41 26 -59 50 -73 43 -25 103 -15 147 24 72 63 135 280 136
466 0 34 5 65 11 69 6 3 30 33 54 65 l43 58 12 -28 c27 -67 99 -97 158 -67 17
9 52 48 81 92 l51 76 0 -55 c0 -62 15 -83 55 -73 29 7 28 4 25 149 -2 99 0
113 25 162 35 72 78 117 107 113 31 -4 36 -41 25 -162 -5 -54 -6 -113 -3 -132
7 -36 47 -74 78 -74 25 0 107 78 154 146 l38 55 13 -38 c18 -53 55 -83 102
-83 32 0 45 7 77 43 22 23 51 60 64 82 l25 40 3 -67 c3 -78 13 -84 61 -39 31
29 31 30 31 130 0 84 4 109 23 153 42 95 104 147 121 102 3 -9 6 -80 6 -158 0
-129 2 -144 20 -164 56 -60 128 -31 204 83 l26 40 0 -48 c0 -53 11 -64 53 -48
l27 11 0 122 0 122 39 65 c46 78 82 114 108 109 50 -9 6 -128 -48 -128 -39 0
-65 -34 -53 -68 12 -34 40 -40 69 -12 20 19 23 19 29 5 3 -9 6 -45 6 -79 0
-49 4 -67 20 -84 59 -63 157 5 235 162 87 177 68 231 -22 62 -62 -117 -97
-158 -133 -154 -24 3 -25 6 -25 66 0 55 -3 66 -24 83 l-24 20 20 22 c57 62 69
142 28 182 -28 29 -36 30 -79 10 -41 -19 -85 -66 -120 -125 -29 -50 -30 -44
-16 62 17 126 29 325 21 355 -9 35 -34 39 -82 13z m-1309 -703 l0 -173 -46
-74 c-62 -102 -90 -130 -130 -130 -65 0 -80 54 -54 204 10 61 24 159 31 218
l12 107 41 10 c22 5 65 9 94 10 l52 1 0 -173z m-495 -623 c-42 -259 -122 -400
-173 -304 -36 68 18 216 118 323 35 37 64 66 65 65 2 -2 -3 -39 -10 -84z"/>
<path d="M2870 3328 c-25 -41 -25 -60 -2 -81 38 -35 82 -6 82 54 0 65 -47 80
-80 27z"/>
<path d="M1296 3061 c-14 -16 -19 -48 -26 -173 -5 -84 -9 -178 -10 -209 l0
-57 -34 34 c-45 45 -80 45 -138 1 -120 -92 -154 -331 -60 -429 53 -56 128 -28
203 75 l28 39 7 -26 c7 -29 57 -76 80 -76 54 0 137 96 203 234 50 102 57 126
37 126 -8 0 -34 -36 -60 -83 -85 -157 -146 -221 -178 -189 -7 7 -15 41 -19 77
-7 57 -5 77 16 141 55 168 74 384 43 484 -12 39 -18 45 -44 48 -20 2 -36 -4
-48 -17z m-97 -446 c11 -14 23 -39 26 -55 4 -17 13 -30 21 -30 23 0 17 -74
-11 -129 -60 -119 -131 -153 -168 -81 -33 64 -8 212 49 287 30 40 56 42 83 8z"/>
<path d="M2605 1974 c-17 -26 -17 -28 1 -41 16 -12 16 -13 1 -13 -9 0 -17 -4
-17 -10 0 -5 7 -10 15 -10 8 0 15 -5 15 -11 0 -5 -4 -7 -10 -4 -5 3 -10 0 -10
-9 0 -8 6 -17 13 -19 7 -3 5 -6 -5 -6 -10 -1 -18 -5 -18 -11 0 -12 7 -12 47
-1 24 7 35 6 43 -4 14 -17 40 -9 40 12 0 13 3 13 15 3 20 -17 31 -5 15 16 -8
9 -10 18 -4 22 14 10 17 42 4 42 -7 0 -10 12 -8 27 2 22 -2 28 -26 34 -17 5
-31 7 -32 6 0 -1 -4 -14 -8 -29 -6 -25 -4 -28 20 -28 36 0 28 -6 -19 -13 -35
-5 -36 -5 -26 15 9 16 7 24 -8 40 -20 19 -20 19 -38 -8z m30 -14 c3 -5 1 -10
-4 -10 -6 0 -11 5 -11 10 0 6 2 10 4 10 3 0 8 -4 11 -10z m92 4 c-3 -3 -12 -4
-19 -1 -8 3 -5 6 6 6 11 1 17 -2 13 -5z m-45 -84 c5 0 8 7 4 15 -3 8 -1 15 4
15 18 0 11 -29 -9 -40 -27 -14 -34 -13 -27 5 3 8 0 15 -7 15 -7 0 -6 4 3 10
11 7 16 5 18 -5 2 -8 8 -15 14 -15z m18 -30 c0 -5 -5 -10 -11 -10 -5 0 -7 5
-4 10 3 6 8 10 11 10 2 0 4 -4 4 -10z"/>
<path d="M2251 1973 c-7 -8 -10 -17 -7 -20 9 -9 29 13 25 25 -2 6 -10 3 -18
-5z"/>
<path d="M2290 1980 c0 -5 16 -10 35 -10 19 0 35 5 35 10 0 6 -16 10 -35 10
-19 0 -35 -4 -35 -10z"/>
<path d="M2420 1981 c0 -6 5 -11 10 -11 15 0 12 -47 -2 -53 -10 -4 -10 -8 1
-15 11 -8 11 -16 2 -43 -6 -18 -8 -35 -5 -38 4 -3 9 0 11 7 4 10 8 10 19 1 21
-17 26 -7 13 30 -9 27 -9 35 2 43 11 7 11 11 2 15 -7 2 -13 15 -13 28 0 13 6
26 13 28 7 4 6 6 -5 6 -9 1 -23 4 -32 7 -9 3 -16 1 -16 -5z"/>
<path d="M2490 1904 c0 -83 1 -85 23 -82 20 3 22 9 25 86 3 82 3 82 -23 82
-25 0 -25 -1 -25 -86z m27 -31 c-2 -21 -4 -6 -4 32 0 39 2 55 4 38 2 -18 2
-50 0 -70z"/>
<path d="M2254 1929 c-7 -9 -9 -32 -4 -64 8 -62 23 -39 18 30 -2 38 -5 45 -14
34z"/>
<path d="M2308 1923 c18 -4 22 -11 22 -44 0 -32 -3 -39 -20 -39 -11 0 -20 -4
-20 -10 0 -15 50 -12 54 3 3 6 7 31 9 55 l5 42 -36 -1 c-24 -1 -29 -3 -14 -6z"/>
</g>
</svg>
